<svg xmlns="http://www.w3.org/2000/svg" style="display: none;">
    <symbol id="icon-star" viewBox="0 0 16 16">
        <path d="M8 .25a.25.25 0 0 1 .224.148l1.768 4.5h4.5a.25.25 0 0 1 .154.437l-3.646 2.65 1.768 4.5a.25.25 0 0 1-.384.284L8 12.347l-3.686 2.65a.25.25 0 0 1-.384-.284l1.768-4.5-3.646-2.65a.25.25 0 0 1 .154-.437h4.5l1.768-4.5A.25.25 0 0 1 8 .25z"/>
    </symbol>
    <symbol id="icon-heart" viewBox="0 0 16 16">
        <path d="M8 15s-7-4.35-7-9A4 4 0 0 1 8 .5a4 4 0 0 1 7 .5c0 4.65-7 9-7 9z"/>
    </symbol>
    <symbol id="icon-check" viewBox="0 0 16 16">
        <path fill-rule="evenodd" d="M13.485,2c-.39,0-.765,.148-1,.414L6,8l-3-3c-.39-.39-1-.39-1,0s-.39,1,.001,1L6,10l6-6c,.39-.39,.39-1,0-1C13,.148,13,.39,13,.414C13,.148,13,.39,13,.414z"/>
    </symbol>
    <symbol fill="none" viewBox="0 0 24 24" id="docs-icon" xmlns="http://www.w3.org/2000/svg" stroke="currentColor">
        <path d="M7 18h7m-7-4h1m-1-4h3M7 2h9.5L21 6.5V19" stroke-width="1.5" stroke-linecap="round" stroke-linejoin="round"/>
        <path d="M3 20.5v-14A1.5 1.5 0 0 1 4.5 5h9.752a.6.6 0 0 1 .424.176l3.148 3.148A.6.6 0 0 1 18 8.75V20.5a1.5 1.5 0 0 1-1.5 1.5h-12A1.5 1.5 0 0 1 3 20.5Z" stroke-width="1.5" stroke-linecap="round" stroke-linejoin="round"/>
        <path d="M14 5v3.4a.6.6 0 0 0 .6.6H18" stroke-width="1.5" stroke-linecap="round" stroke-linejoin="round"/>
    </symbol>
    <symbol fill="none" viewBox="0 0 24 24" id="doc-icon" xmlns="http://www.w3.org/2000/svg" stroke="currentColor">
        <path d="M8 10h8m-8 8h8m-8-4h4m-8 7.4V2.6a.6.6 0 0 1 .6-.6h11.652a.6.6 0 0 1 .424.176l3.148 3.148A.6.6 0 0 1 20 5.75V21.4a.6.6 0 0 1-.6.6H4.6a.6.6 0 0 1-.6-.6Z" stroke-width="1.5" stroke-linecap="round" stroke-linejoin="round"/>
        <path d="M16 2v3.4a.6.6 0 0 0 .6.6H20" stroke-width="1.5" stroke-linecap="round" stroke-linejoin="round"/>
    </symbol>
    <symbol fill="none" viewBox="0 0 24 24" id="requests-icon" xmlns="http://www.w3.org/2000/svg" stroke="currentColor">
        <path d="M9.2 6.4h11M4 6.2l.8.8 2-2M4 12.2l.8.8 2-2M4 18.2l.8.8 2-2m2.4-4.6h11m-11 6h11" stroke-width="1.5" stroke-linecap="round" stroke-linejoin="round"/>
    </symbol>
    <symbol fill="none" viewBox="0 0 24 24" id="contacts-icon" xmlns="http://www.w3.org/2000/svg" stroke="currentColor">
        <path d="M4 19V5a2 2 0 0 1 2-2h13.4a.6.6 0 0 1 .6.6v13.114M6 17h14M6 21h14" stroke-width="1.5" stroke-linecap="round"/>
        <path d="M6 21a2 2 0 1 1 0-4" stroke-width="1.5" stroke-linecap="round" stroke-linejoin="round"/>
    </symbol>
    <symbol fill="none" viewBox="0 0 24 24" id="user-icon" xmlns="http://www.w3.org/2000/svg" stroke="currentColor">
        <path d="M7 18v-1a5 5 0 1 1 10 0v1" stroke-width="1.5" stroke-linecap="round"/>
        <path d="M12 12a3 3 0 1 0 0-6 3 3 0 0 0 0 6Z" stroke-width="1.5" stroke-linecap="round" stroke-linejoin="round"/>
        <path d="M12 22c5.523 0 10-4.477 10-10S17.523 2 12 2 2 6.477 2 12s4.477 10 10 10Z" stroke-width="1.5"/>
    </symbol>
    <symbol fill="none" viewBox="0 0 24 24" id="logout-icon" xmlns="http://www.w3.org/2000/svg" stroke="currentColor">
        <path d="M12 12h7m0 0-3 3m3-3-3-3m3-3V5a2 2 0 0 0-2-2H7a2 2 0 0 0-2 2v14a2 2 0 0 0 2 2h10a2 2 0 0 0 2-2v-1" stroke-width="1.5" stroke-linecap="round" stroke-linejoin="round"/>
    </symbol>
    <symbol fill="none" viewBox="0 0 24 24" id="menu-icon" xmlns="http://www.w3.org/2000/svg" stroke="currentColor">
        <path d="M3 12h14M3 5h18M3 19h18" stroke-width="2" stroke-linecap="round" stroke-linejoin="round"/>
    </symbol>
    <symbol fill="none" viewBox="0 0 8 24" id="back-icon" xmlns="http://www.w3.org/2000/svg" stroke="currentColor">
        <path d="m7 6-6 6 6 6" stroke-width="1.5" stroke-linecap="round" stroke-linejoin="round"/>
    </symbol>
    <symbol fill="none" viewBox="0 0 14 14" id="plus-icon" xmlns="http://www.w3.org/2000/svg" stroke="currentColor">
        <path d="M1 7h6m0 0h6M7 7V1m0 6v6" stroke-width="1.5" stroke-linecap="round" stroke-linejoin="round"/>
    </symbol>
    <symbol fill="currentColor" viewBox="0 0 8 4" id="chevron-down" xmlns="http://www.w3.org/2000/svg">
        <path d="M8 0 4 4 0 0h8Z" />
    </symbol>
    <symbol fill="none" viewBox="0 0 24 24" id="pen-icon" xmlns="http://www.w3.org/2000/svg" stroke="currentColor">
        <path d="m14.44 6.066 1.48-1.48a2 2 0 0 1 2.829 0L20.163 6a2 2 0 0 1 0 2.828l-1.48 1.48M14.44 6.066l-9.616 9.615a2 2 0 0 0-.578 1.238l-.242 2.74a1 1 0 0 0 1.084 1.085l2.74-.242a2 2 0 0 0 1.24-.578l9.615-9.616M14.44 6.066l4.243 4.242" stroke-width="1.5" stroke-linecap="round" stroke-linejoin="round"/>
    </symbol>
    <symbol fill="none" viewBox="0 0 19 19" id="eye-icon" xmlns="http://www.w3.org/2000/svg" stroke="currentColor">
        <path d="M11.875 9.5a2.375 2.375 0 1 1-4.75 0 2.375 2.375 0 0 1 4.75 0Z" stroke-width="1.5" stroke-linecap="round" stroke-linejoin="round"/>
        <path d="M1.583 9.5C2.85 6.257 5.808 3.958 9.5 3.958s6.65 2.299 7.917 5.542c-1.267 3.244-4.225 5.542-7.917 5.542S2.85 12.744 1.583 9.5Z" stroke-width="1.5" stroke-linecap="round" stroke-linejoin="round"/>
    </symbol>
    <symbol fill="none" viewBox="0 0 24 24" id="eyeoff-icon" xmlns="http://www.w3.org/2000/svg" stroke="currentColor">
        <path d="M10.73 5.073C11.152 5.024 11.576 5 12 5c4.664 0 8.4 2.903 10 7-.387.997-.91 1.935-1.555 2.788M6.52 6.519C4.48 7.764 2.9 9.693 2 12c1.6 4.097 5.336 7 10 7a10.44 10.44 0 0 0 5.48-1.52m-7.6-7.6a3 3 0 1 0 4.243 4.243" stroke-width="1.5" stroke-linecap="round" stroke-linejoin="round"/>
        <path d="m4 4 16 16" stroke="#0B1930" stroke-width="1.5" stroke-linecap="round"/>
    </symbol>
    <symbol fill="none" viewBox="0 0 24 24" id="close-icon" xmlns="http://www.w3.org/2000/svg" stroke="currentColor">
        <path d="m7 17.486 5.243-5.243 5.243 5.243m0-10.486-5.244 5.243L7 7" stroke-width="1.5" stroke-linecap="round" stroke-linejoin="round"/>
    </symbol>
    <symbol fill="none" viewBox="0 0 24 25" id="bitrix-icon" xmlns="http://www.w3.org/2000/svg" stroke="currentColor">
        <path d="M18.573 11.716a3.682 3.682 0 0 1-.283 7.353M13.714 8.672a3.279 3.279 0 0 1 4.864 3.033M6.01 11.42a4.114 4.114 0 0 1 7.667-2.738M6.89 19.075h11.175m-11.23-.056a3.837 3.837 0 0 1-.83-7.58m6.14.354v2.282h2.031" stroke-width="1.3" stroke-linecap="round" stroke-linejoin="round"/>
        <path d="M16.098 13.704a3.606 3.606 0 1 1-7.213-.001 3.606 3.606 0 0 1 7.213.001Z" stroke-width="1.3" stroke-linecap="round" stroke-linejoin="round"/>
    </symbol>
    <symbol fill="none" viewBox="0 0 41 40" id="404-part" xmlns="http://www.w3.org/2000/svg">
        <path d="M20.13 6.807c-.293-1.072-.36-2.146-.372-3.219.01-1.073.077-2.146.372-3.219.294 1.073.36 2.146.37 3.22-.012 1.073-.078 2.146-.37 3.218ZM13.549 8.704c-.793-.783-1.388-1.68-1.937-2.602-.53-.935-1.01-1.897-1.295-2.973.794.783 1.39 1.68 1.937 2.603.528.935 1.01 1.897 1.295 2.972ZM8.802 13.625c-1.08-.284-2.046-.763-2.984-1.29-.928-.545-1.828-1.139-2.613-1.929 1.08.283 2.046.762 2.984 1.29.926.547 1.826 1.14 2.613 1.93ZM7.16 20.253c-1.077.291-2.155.357-3.231.37-1.077-.011-2.155-.076-3.232-.37 1.077-.293 2.155-.36 3.232-.37 1.076.012 2.153.078 3.23.37ZM9.062 26.807c-.786.79-1.686 1.382-2.612 1.93-.938.527-1.904 1.006-2.984 1.289.786-.79 1.686-1.384 2.612-1.93.94-.526 1.905-1.006 2.984-1.29ZM14.001 31.535c-.285 1.075-.766 2.038-1.294 2.973-.548.924-1.144 1.82-1.937 2.603.284-1.076.765-2.039 1.294-2.973.55-.923 1.145-1.82 1.937-2.603ZM20.652 33.17c.292 1.073.358 2.146.37 3.22-.01 1.072-.076 2.145-.37 3.218-.295-1.073-.36-2.146-.372-3.219.013-1.073.079-2.146.372-3.22ZM27.231 31.28c.792.783 1.387 1.68 1.937 2.602.53.935 1.01 1.897 1.294 2.973-.794-.783-1.389-1.68-1.937-2.603-.528-.936-1.009-1.898-1.294-2.973ZM31.978 26.355c1.08.285 2.045.764 2.984 1.29.928.546 1.828 1.14 2.613 1.93-1.08-.283-2.046-.762-2.984-1.29-.926-.547-1.827-1.14-2.613-1.93ZM33.621 19.731c1.077-.291 2.154-.357 3.231-.37 1.077.011 2.155.076 3.232.37-1.078.293-2.155.36-3.232.37-1.077-.012-2.154-.078-3.23-.37ZM31.718 13.176c.786-.79 1.686-1.383 2.612-1.93.938-.526 1.904-1.006 2.984-1.289-.785.79-1.685 1.384-2.612 1.93-.939.526-1.905 1.005-2.984 1.29ZM26.78 8.449c.285-1.075.767-2.038 1.295-2.973.548-.924 1.143-1.82 1.937-2.603-.284 1.076-.765 2.038-1.295 2.973-.55.922-1.145 1.82-1.937 2.603Z" fill="#263238"/>
    </symbol>
    <symbol stroke="currentColor" viewBox="0 0 24 24" id="clip-icon" xmlns="http://www.w3.org/2000/svg">
        <path stroke-width="1" stroke-linecap="round" stroke-linejoin="round" d="M16.5 6.651V17.35c0 2.056-1.79 3.256-4 3.256s-4-1.2-4-3.256V5.72c0-.617.263-1.208.732-1.644A2.598 2.598 0 0 1 11 3.395c.663 0 1.299.245 1.768.682.469.436.732 1.027.732 1.644v9.767c0 .512-.45.93-1 .93s-1-.418-1-.93V6.651H10v8.837c0 .617.263 1.209.732 1.645a2.599 2.599 0 0 0 1.768.681c.663 0 1.299-.245 1.768-.681A2.246 2.246 0 0 0 15 15.488V5.721C15 3.665 13.21 2 11 2S7 3.665 7 5.72V17.35C7 20.177 9.46 22 12.5 22s5.5-1.823 5.5-4.651V6.65h-1.5Z"/>
    </symbol>
</svg>