<svg xmlns="http://www.w3.org/2000/svg" style="display: none;">
    <symbol id="icon-star" viewBox="0 0 16 16">
        <path d="M8 .25a.25.25 0 0 1 .224.148l1.768 4.5h4.5a.25.25 0 0 1 .154.437l-3.646 2.65 1.768 4.5a.25.25 0 0 1-.384.284L8 12.347l-3.686 2.65a.25.25 0 0 1-.384-.284l1.768-4.5-3.646-2.65a.25.25 0 0 1 .154-.437h4.5l1.768-4.5A.25.25 0 0 1 8 .25z"/>
    </symbol>
    <symbol id="icon-heart" viewBox="0 0 16 16">
        <path d="M8 15s-7-4.35-7-9A4 4 0 0 1 8 .5a4 4 0 0 1 7 .5c0 4.65-7 9-7 9z"/>
    </symbol>
    <symbol id="icon-check" viewBox="0 0 16 16">
        <path fill-rule="evenodd" d="M13.485,2c-.39,0-.765,.148-1,.414L6,8l-3-3c-.39-.39-1-.39-1,0s-.39,1,.001,1L6,10l6-6c,.39-.39,.39-1,0-1C13,.148,13,.39,13,.414C13,.148,13,.39,13,.414z"/>
    </symbol>
    <symbol fill="none" viewBox="0 0 24 24" id="docs-icon" xmlns="http://www.w3.org/2000/svg" stroke="currentColor">
        <path d="M7 18h7m-7-4h1m-1-4h3M7 2h9.5L21 6.5V19" stroke-width="1.5" stroke-linecap="round" stroke-linejoin="round"/>
        <path d="M3 20.5v-14A1.5 1.5 0 0 1 4.5 5h9.752a.6.6 0 0 1 .424.176l3.148 3.148A.6.6 0 0 1 18 8.75V20.5a1.5 1.5 0 0 1-1.5 1.5h-12A1.5 1.5 0 0 1 3 20.5Z" stroke-width="1.5" stroke-linecap="round" stroke-linejoin="round"/>
        <path d="M14 5v3.4a.6.6 0 0 0 .6.6H18" stroke-width="1.5" stroke-linecap="round" stroke-linejoin="round"/>
    </symbol>
    <symbol fill="none" viewBox="0 0 24 24" id="doc-icon" xmlns="http://www.w3.org/2000/svg" stroke="currentColor">
        <path d="M8 10h8m-8 8h8m-8-4h4m-8 7.4V2.6a.6.6 0 0 1 .6-.6h11.652a.6.6 0 0 1 .424.176l3.148 3.148A.6.6 0 0 1 20 5.75V21.4a.6.6 0 0 1-.6.6H4.6a.6.6 0 0 1-.6-.6Z" stroke-width="1.5" stroke-linecap="round" stroke-linejoin="round"/>
        <path d="M16 2v3.4a.6.6 0 0 0 .6.6H20" stroke-width="1.5" stroke-linecap="round" stroke-linejoin="round"/>
    </symbol>
    <symbol fill="none" viewBox="0 0 24 24" id="requests-icon" xmlns="http://www.w3.org/2000/svg" stroke="currentColor">
        <path d="M9.2 6.4h11M4 6.2l.8.8 2-2M4 12.2l.8.8 2-2M4 18.2l.8.8 2-2m2.4-4.6h11m-11 6h11" stroke-width="1.5" stroke-linecap="round" stroke-linejoin="round"/>
    </symbol>
    <symbol fill="none" viewBox="0 0 24 24" id="contacts-icon" xmlns="http://www.w3.org/2000/svg" stroke="currentColor">
        <path d="M4 19V5a2 2 0 0 1 2-2h13.4a.6.6 0 0 1 .6.6v13.114M6 17h14M6 21h14" stroke-width="1.5" stroke-linecap="round"/>
        <path d="M6 21a2 2 0 1 1 0-4" stroke-width="1.5" stroke-linecap="round" stroke-linejoin="round"/>
    </symbol>
    <symbol fill="none" viewBox="0 0 24 24" id="user-icon" xmlns="http://www.w3.org/2000/svg" stroke="currentColor">
        <path d="M7 18v-1a5 5 0 1 1 10 0v1" stroke-width="1.5" stroke-linecap="round"/>
        <path d="M12 12a3 3 0 1 0 0-6 3 3 0 0 0 0 6Z" stroke-width="1.5" stroke-linecap="round" stroke-linejoin="round"/>
        <path d="M12 22c5.523 0 10-4.477 10-10S17.523 2 12 2 2 6.477 2 12s4.477 10 10 10Z" stroke-width="1.5"/>
    </symbol>
    <symbol fill="none" viewBox="0 0 24 24" id="logout-icon" xmlns="http://www.w3.org/2000/svg" stroke="currentColor">
        <path d="M12 12h7m0 0-3 3m3-3-3-3m3-3V5a2 2 0 0 0-2-2H7a2 2 0 0 0-2 2v14a2 2 0 0 0 2 2h10a2 2 0 0 0 2-2v-1" stroke-width="1.5" stroke-linecap="round" stroke-linejoin="round"/>
    </symbol>
    <symbol fill="none" viewBox="0 0 24 24" id="menu-icon" xmlns="http://www.w3.org/2000/svg" stroke="currentColor">
        <path d="M3 12h14M3 5h18M3 19h18" stroke-width="2" stroke-linecap="round" stroke-linejoin="round"/>
    </symbol>
    <symbol fill="none" viewBox="0 0 8 24" id="back-icon" xmlns="http://www.w3.org/2000/svg" stroke="currentColor">
        <path d="m7 6-6 6 6 6" stroke-width="1.5" stroke-linecap="round" stroke-linejoin="round"/>
    </symbol>
    <symbol fill="none" viewBox="0 0 14 14" id="plus-icon" xmlns="http://www.w3.org/2000/svg" stroke="currentColor">
        <path d="M1 7h6m0 0h6M7 7V1m0 6v6" stroke-width="1.5" stroke-linecap="round" stroke-linejoin="round"/>
    </symbol>
    <symbol fill="currentColor" viewBox="0 0 8 4" id="chevron-down" xmlns="http://www.w3.org/2000/svg">
        <path d="M8 0 4 4 0 0h8Z" />
    </symbol>
    <symbol fill="none" viewBox="0 0 24 24" id="pen-icon" xmlns="http://www.w3.org/2000/svg" stroke="currentColor">
        <path d="m14.44 6.066 1.48-1.48a2 2 0 0 1 2.829 0L20.163 6a2 2 0 0 1 0 2.828l-1.48 1.48M14.44 6.066l-9.616 9.615a2 2 0 0 0-.578 1.238l-.242 2.74a1 1 0 0 0 1.084 1.085l2.74-.242a2 2 0 0 0 1.24-.578l9.615-9.616M14.44 6.066l4.243 4.242" stroke-width="1.5" stroke-linecap="round" stroke-linejoin="round"/>
    </symbol>
    <symbol fill="none" viewBox="0 0 19 19" id="eye-icon" xmlns="http://www.w3.org/2000/svg" stroke="currentColor">
        <path d="M11.875 9.5a2.375 2.375 0 1 1-4.75 0 2.375 2.375 0 0 1 4.75 0Z" stroke-width="1.5" stroke-linecap="round" stroke-linejoin="round"/>
        <path d="M1.583 9.5C2.85 6.257 5.808 3.958 9.5 3.958s6.65 2.299 7.917 5.542c-1.267 3.244-4.225 5.542-7.917 5.542S2.85 12.744 1.583 9.5Z" stroke-width="1.5" stroke-linecap="round" stroke-linejoin="round"/>
    </symbol>
    <symbol fill="none" viewBox="0 0 24 24" id="close-icon" xmlns="http://www.w3.org/2000/svg" stroke="currentColor">
        <path d="m7 17.486 5.243-5.243 5.243 5.243m0-10.486-5.244 5.243L7 7" stroke-width="1.5" stroke-linecap="round" stroke-linejoin="round"/>
    </symbol>
</svg>